# xmcd
#
# Track frame offsets:
#	150
#	61960
#	87030
#	108917
#	128215
#	157312
#	190447
#	206442
#	233360
#
# Disc length: 3395 seconds
#
# Revision: 1
# Processed by: cddbd v1.5.1PL0 Copyright (c) Steve Scherf et al.
# Submitted via: audiograbber 1.82.01
#
DISCID=720d4109
DTITLE=Adzido - Akwaaba
DYEAR=2000
DGENRE=Africa
TTITLE0=Egwabo
TTITLE1=Sekiapu
TTITLE2=Isikuti
TTITLE3=Warrior
TTITLE4=Wali
TTITLE5=Sindimba
TTITLE6=Zagrobi
TTITLE7=Atilogwu
TTITLE8=Tematei Zaouli
EXTD=
EXTT0=
EXTT1=
EXTT2=
EXTT3=
EXTT4=
EXTT5=
EXTT6=
EXTT7=
EXTT8=
PLAYORDER=
